# xmcd
#
# Track frame offsets:
#	150
#	21187
#	61397
#	103942
#	144926
#	166057
#
# Disc length: 2579 seconds
#
# Revision: 1
# Processed by: cddbd v1.5.2PL0 Copyright (c) Steve Scherf et al.
# Submitted via: audiograbber 1.83.01
#
DISCID=480a1106
DTITLE=Grateful Dead - 80-06-20 West High Auditorium, Anchorage AK
DYEAR=1900
DGENRE=
TTITLE0=Space
TTITLE1=Truckin'
TTITLE2=Stella Blue
TTITLE3=Sugar Magnolia
TTITLE4=One More Saturday Night
TTITLE5=Brokedown Palace
EXTD=
EXTT0=
EXTT1=
EXTT2=
EXTT3=
EXTT4=
EXTT5=
PLAYORDER=
